<!--?xml version="1.0" encoding="utf-8"?-->
<!-- Generator: Adobe Illustrator 18.0.0, SVG Export Plug-In . SVG Version: 6.00 Build 0)  -->

<svg version="1.1" id="_x32_" xmlns="http://www.w3.org/2000/svg" xmlns:xlink="http://www.w3.org/1999/xlink" x="0px" y="0px" viewBox="0 0 512 512" style="width: 256px; height: 256px; opacity: 1;" xml:space="preserve">
<style type="text/css">
	.st0{fill:#BFB9B0;}
</style>
<g>
	<polygon class="st0" points="422.56,301.84 110.207,301.84 47.356,301.809 47.363,301.84 47.199,301.84 66.641,395.281
		425.746,320.375 426.244,320.273 426.244,320.273 426.4,320.238 	"></polygon>
	<path class="st0" d="M470.959,179.281h-15.998c-12.16,0-22.082,9.84-22.082,22c0,12.156,9.922,22,22.082,22h1.918
		c-1.758-19.043,10.961-36.883,30.082-40.883l-9.39-45.278l-0.018-0.086l0,0l-0.033-0.156l-6.559,1.359v40.949L470.959,179.281z"></path>
	<path class="st0" d="M511.844,302.434l0.156-0.035l-9.43-45.082l-0.057-0.282h-0.002l-0.031-0.156
		c-1.16,0.242-2.316,0.387-3.472,0.52c-0.467,0.054-0.93,0.109-1.399,0.144c-6.592,0.504-13.01-0.754-18.75-3.41
		c-0.426-0.203-0.863-0.375-1.277-0.594c-0.738-0.375-1.449-0.801-2.16-1.222c-1.492-0.926-2.963-1.891-4.303-3.035v0.113
		c-0.053-0.043-0.108-0.074-0.158-0.113v52.398l-0.002,0.16h-23.846l-4.797-0.031l0.006,0.031h-0.162l2.961,14.48l66.644-13.871
		L511.844,302.434L511.844,302.434z"></path>
	<path class="st0" d="M367.44,285.84v-19.199h19.201v19.199h68.32v-46.558c-21.041,0-38.082-17.043-38.082-38
		c0-21.043,17.041-38,38.082-38v-21.68v-24.883h-68.32v19.203H367.44v-19.203H0V285.84h43.84H367.44z M367.44,247.039V211.84h19.201
		v35.199H367.44z M386.641,155.836v0.004v34.801H367.44V159.84v-4.32h6.348L386.641,155.836z M320.56,178.559v56.723h-17.682
		v-56.723H286.24v-1.84v-15.437h51.039v4.797v12.48H320.56z M282.24,177.601l-4.641,0.957h-24.881v5.199v5.41v0.032l0,0v0.16h25.121
		v17.281h-25.121v11.133v0.066l0,0V218h29.522v17.281h-47.28v-47.844v-26.156h47.28V177.601z M209.84,161.281h13.605l8.16,0.094
		l-23.285,30.144l0.719,1.36l16.125,29.472l6.988,12.93H211.76l-15.279-29.043l-5.201,6.641v22.402H173.6v-35.043v-38.957h17.68
		v13.602l-0.129,11.023l0.129-0.172V186L209.84,161.281z M166.783,187.68h-17.904l-0.478-2c-0.56-2.398-1.522-4.32-2.881-5.84
		c-1.119-1.281-2.879-1.918-5.199-1.918c-1.36,0-2.48,0.238-3.52,0.719c-0.961,0.48-1.762,1.117-2.4,1.918
		c-0.48,0.562-0.881,1.121-1.121,1.762c-0.318,0.719-0.56,1.68-0.799,2.879c-0.24,1.359-0.4,3.039-0.48,5.121
		c-0.16,2.078-0.16,4.719-0.16,8c0,3.199,0,5.84,0.16,8c0,0.879,0.08,1.758,0.16,2.559c0.08,0.879,0.16,1.762,0.32,2.48
		c0.238,1.199,0.48,2.16,0.799,2.879c0.24,0.641,0.641,1.199,1.041,1.762c0.719,0.801,1.52,1.437,2.48,1.922
		c1.039,0.477,2.16,0.719,3.52,0.719c2.32,0,4.08-0.64,5.279-1.922c1.361-1.519,2.32-3.437,2.881-5.84l0.48-2h15.615l2.221,0.023
		l-0.476,3.02c-1.36,7.836-4.32,13.758-9.041,17.836c-4.638,4-10.4,6.082-16.959,6.082c-4.08,0-7.68-0.719-10.801-2.16
		c-3.039-1.36-5.84-3.36-8.24-5.922c-1.84-1.918-3.199-4-4.158-6.078c-0.961-2.078-1.682-4.32-2.16-6.801
		c-0.16-0.719-0.242-1.52-0.32-2.32c-0.24-1.68-0.32-3.438-0.4-5.277c-0.08-2.723-0.16-5.68-0.16-8.961
		c0-3.359,0.08-6.32,0.16-8.961c0.08-2.801,0.32-5.359,0.799-7.68c0.4-2.48,1.121-4.719,2.082-6.801
		c0.959-2.078,2.318-4.16,4.158-6.078c2.4-2.563,5.201-4.563,8.24-5.922c3.121-1.442,6.721-2.16,10.801-2.16
		c6.558,0,12.32,2.082,16.959,6.082c4.721,4.078,7.682,10.078,9.041,17.84l0.434,2.75L166.783,187.68z M106.641,161.281v52.957
		v21.043h-17.68v-17.36v-56.64H106.641z M65.6,178.559v44.242v12.48H47.92v-8.801v-47.922H31.199v-17.277H82.32v17.277H65.6z"></path>
</g>
</svg>
