<!--?xml version="1.0" encoding="utf-8"?-->
<!-- Generator: Adobe Illustrator 15.1.0, SVG Export Plug-In . SVG Version: 6.00 Build 0)  -->

<svg version="1.1" id="_x32_" xmlns="http://www.w3.org/2000/svg" xmlns:xlink="http://www.w3.org/1999/xlink" x="0px" y="0px" width="512px" height="512px" viewBox="0 0 512 512" style="width: 256px; height: 256px; opacity: 1;" xml:space="preserve">
<style type="text/css">

	.st0{fill:#BFB9B0;}

</style>
<g>
	<rect x="186.188" y="171.156" class="st0" width="48" height="48" style="fill: #BFB9B0;"></rect>
	<rect x="227.313" y="290.484" class="st0" width="24" height="144" style="fill: #BFB9B0;"></rect>
	<rect x="179.313" y="290.484" class="st0" width="24" height="112" style="fill: #BFB9B0;"></rect>
	<path class="st0" d="M448.516,23.516H63.5C28.438,23.516,0,51.938,0,87s28.438,63.484,63.5,63.484h49.828v291.984
		c0.016,25.422,20.609,46.016,46.016,46.016h193.313c25.422,0,46-20.594,46.016-46.016V150.484h49.844
		C483.578,150.484,512,122.063,512,87S483.578,23.516,448.516,23.516z M299.5,464.484H159.344c-12.156-0.016-22-9.859-22.016-22.016
		V113.172c0.016-12.156,9.859-21.984,22.016-22.016H299.5V464.484z M374.672,442.469c-0.016,12.156-9.859,22-22.016,22.016H339.5
		V91.156h13.156c12.156,0.031,22,9.859,22.016,22.016V442.469z" style="fill: #BFB9B0;"></path>
</g>
</svg>
