<!--?xml version="1.0" encoding="utf-8"?-->
<!-- Generator: Adobe Illustrator 18.1.1, SVG Export Plug-In . SVG Version: 6.00 Build 0)  -->

<svg version="1.1" id="_x32_" xmlns="http://www.w3.org/2000/svg" xmlns:xlink="http://www.w3.org/1999/xlink" x="0px" y="0px" viewBox="0 0 512 512" style="width: 256px; height: 256px; opacity: 1;" xml:space="preserve">
<style type="text/css">
	.st0{fill:#BFB9B0;}
</style>
<g>
	<path class="st0" d="M451.766,105.129H60.234L0,354.671h512L451.766,105.129z M208.425,139.548h94.99l7.21,77.444h-109.41
		L208.425,139.548z M165.686,320.251H43.722l18.697-77.444h110.477L165.686,320.251z M175.3,216.992H68.646l18.697-77.444h95.158
		L175.3,216.992z M191.61,320.251l7.202-77.444h114.217l7.201,77.444H191.61z M329.34,139.548h95.326l18.697,77.444H336.541
		L329.34,139.548z M338.944,242.807H449.59l18.697,77.444H346.154L338.944,242.807z" style="fill: #BFB9B0;"></path>
	<polygon class="st0" points="20.084,406.871 491.916,406.871 512,366.712 0,366.712 	" style="fill: #BFB9B0;"></polygon>
</g>
</svg>
