<!--?xml version="1.0" encoding="utf-8"?-->
<!-- Generator: Adobe Illustrator 18.0.0, SVG Export Plug-In . SVG Version: 6.00 Build 0)  -->

<svg version="1.1" id="_x32_" xmlns="http://www.w3.org/2000/svg" xmlns:xlink="http://www.w3.org/1999/xlink" x="0px" y="0px" viewBox="0 0 512 512" style="width: 256px; height: 256px; opacity: 1;" xml:space="preserve">
<style type="text/css">
	.st0{fill:#BFB9B0;}
</style>
<g>
	<path class="st0" d="M429.356,0H82.644C37.074,0,0,37.078,0,82.648v346.711C0,474.93,37.074,512,82.644,512h346.711
		c45.57,0,82.644-37.07,82.644-82.641V82.648C512,37.078,474.926,0,429.356,0z M455.558,246.672H408v18.664h47.558v164.023
		c0,4.547-1.269,8.766-3.32,12.5l-33.039-33.039L406,422.024l31.967,31.968c-2.711,0.946-5.58,1.57-8.611,1.57H265.334V408h-18.668
		v47.562H82.644c-3.808,0-7.406-0.859-10.676-2.328l31.211-31.211L89.98,408.82L58.77,440.031
		c-1.469-3.266-2.328-6.867-2.328-10.672V265.336H104v-18.664H56.442V82.648c0-3.211,0.66-6.242,1.718-9.086l31.82,31.82
		L103.18,92.18L70.543,59.547c3.637-1.914,7.715-3.102,12.102-3.102h164.022V104h18.668V56.445h164.022
		c3.646,0,7.117,0.758,10.275,2.11L406,92.18l13.199,13.203l33.814-33.812c1.588,3.375,2.545,7.102,2.545,11.078V246.672z" style="fill: #BFB9B0;"></path>
	<path class="st0" d="M303.945,213.641l-35.476,17.414C264.699,229.164,260.504,228,256,228c-2.035,0-4.01,0.242-5.922,0.656
		l-76.476-114.953l-21.078-10.32l1.109,23.633l77.465,116.438C229.182,247.242,228,251.461,228,256c0,8.156,3.541,15.422,9.1,20.539
		l-56.873,105.086l1.656,11.468l12.648-4.281L251.5,283.547c1.473,0.242,2.959,0.453,4.5,0.453
		c14.354,0,26.049-10.836,27.674-24.758l34.381-16.875l55-27L384,190.336l-25.055-3.695L303.945,213.641z" style="fill: #BFB9B0;"></path>
</g>
</svg>
